<?xml version="1.0" standalone="no"?><!DOCTYPE svg PUBLIC "-//W3C//DTD SVG 1.1//EN" "http://www.w3.org/Graphics/SVG/1.1/DTD/svg11.dtd"><svg t="1561097068261" class="icon" viewBox="0 0 1024 1024" version="1.1" xmlns="http://www.w3.org/2000/svg" p-id="4931" data-spm-anchor-id="a313x.7781069.0.i37" xmlns:xlink="http://www.w3.org/1999/xlink" width="100" height="100"><defs><style type="text/css"></style></defs><path d="M193.207547 193.207547h637.584906v637.584906H193.207547z" fill="#A8A8A8" p-id="4932" data-spm-anchor-id="a313x.7781069.0.i33" class=""></path><path d="M212.528302 212.528302h135.245283v135.245283h-135.245283z" fill="#EAEAEA" p-id="4933"></path><path d="M367.09434 212.528302h135.245283v135.245283h-135.245283z" fill="#D6D6D6" p-id="4934" data-spm-anchor-id="a313x.7781069.0.i34" class=""></path><path d="M521.660377 212.528302h135.245283v135.245283h-135.245283z" fill="#FFFFFF" p-id="4935"></path><path d="M676.226415 212.528302h135.245283v135.245283h-135.245283z" fill="#20b2aa" p-id="4936" data-spm-anchor-id="a313x.7781069.0.i40" class="selected"></path><path d="M212.528302 367.09434h135.245283v135.245283h-135.245283z" fill="#FFFFFF" p-id="4937" data-spm-anchor-id="a313x.7781069.0.i36" class=""></path><path d="M367.09434 367.09434h135.245283v135.245283h-135.245283z" fill="#EAEAEA" p-id="4938"></path><path d="M521.660377 367.09434h135.245283v135.245283h-135.245283z" fill="#20b2aa" p-id="4939" data-spm-anchor-id="a313x.7781069.0.i38" class="selected"></path><path d="M676.226415 367.09434h135.245283v135.245283h-135.245283z m-463.698113 154.566037h135.245283v135.245283h-135.245283z" fill="#EAEAEA" p-id="4940"></path><path d="M367.09434 521.660377h135.245283v135.245283h-135.245283z" fill="#20b2aa" p-id="4941" data-spm-anchor-id="a313x.7781069.0.i39" class="selected"></path><path d="M521.660377 521.660377h135.245283v135.245283h-135.245283z" fill="#FFFFFF" p-id="4942"></path><path d="M676.226415 521.660377h135.245283v135.245283h-135.245283z" fill="#E0E0E0" p-id="4943"></path><path d="M212.528302 676.226415h135.245283v135.245283h-135.245283z" fill="#20b2aa" p-id="4944" data-spm-anchor-id="a313x.7781069.0.i32" class="selected"></path><path d="M367.09434 676.226415h135.245283v135.245283h-135.245283z m154.566037 0h135.245283v135.245283h-135.245283z" fill="#EAEAEA" p-id="4945"></path><path d="M676.226415 676.226415h135.245283v135.245283h-135.245283z" fill="#F5F5F5" p-id="4946"></path></svg>