<?xml version="1.0" standalone="no"?><!DOCTYPE svg PUBLIC "-//W3C//DTD SVG 1.1//EN" "http://www.w3.org/Graphics/SVG/1.1/DTD/svg11.dtd"><svg t="1561463583065" class="icon" viewBox="0 0 1024 1024" version="1.1" xmlns="http://www.w3.org/2000/svg" p-id="2083" xmlns:xlink="http://www.w3.org/1999/xlink" width="100" height="100"><defs><style type="text/css"></style></defs><path d="M0 0h56.853333v1024H0V0z" fill="#8a8a8a" p-id="2084" data-spm-anchor-id="a313x.7781069.0.i0" class=""></path><path d="M214.933333 351.68c0 36.842667 29.845333 66.666667 66.688 66.666667a66.666667 66.666667 0 1 0 0-133.376 66.688 66.688 0 0 0-66.688 66.709333z" fill="#4EA000" p-id="2085"></path><path d="M158.08 650.474667a66.688 66.688 0 1 0 133.376 0.042666 66.688 66.688 0 0 0-133.376-0.042666z" fill="#1296db" p-id="2086" data-spm-anchor-id="a313x.7781069.0.i5" class="selected"></path><path d="M627.52 262.677333a66.709333 66.709333 0 0 0 133.397333 0.085334v-0.085334a66.709333 66.709333 0 1 0-133.397333-0.085333v0.085333z" fill="#d81e06" p-id="2087" data-spm-anchor-id="a313x.7781069.0.i3" class=""></path><path d="M449.664 529.557333a66.666667 66.666667 0 1 0 133.376 0.085334v-0.085334a66.666667 66.666667 0 1 0-133.376 0z" fill="#FFD101" p-id="2088"></path><path d="M766.186667 682.624a66.688 66.688 0 1 0 133.376 0.064v-0.064a66.688 66.688 0 1 0-133.376 0z" fill="#1296db" p-id="2089" data-spm-anchor-id="a313x.7781069.0.i6" class="selected"></path><path d="M335.957333 757.098667c0 36.864 29.845333 66.688 66.688 66.688S469.333333 793.962667 469.333333 757.098667s-29.845333-66.688-66.688-66.688-66.688 29.845333-66.688 66.688z" fill="#d81e06" p-id="2090" data-spm-anchor-id="a313x.7781069.0.i2" class=""></path><path d="M12.714667 967.146667H1024V1024H12.714667v-56.853333z" fill="#8a8a8a" p-id="2091" data-spm-anchor-id="a313x.7781069.0.i1" class=""></path><path d="M805.397333 472.597333a66.688 66.688 0 0 0 133.397334 0.064v-0.085333a66.688 66.688 0 1 0-133.397334-0.085333v0.106666z" fill="#1296db" p-id="2092" data-spm-anchor-id="a313x.7781069.0.i4" class="selected"></path></svg>